<svg class="svg-icon" style="width: 1em; height: 1em;vertical-align: middle;fill: currentColor;overflow: hidden;" viewBox="0 0 1024 1024" version="1.1" xmlns="http://www.w3.org/2000/svg"><path d="M775.314286 815.164532a15.637438 15.637438 0 0 0 15.637438-15.637438v-50.44335a15.637438 15.637438 0 0 0-15.637438-15.637439 15.637438 15.637438 0 0 0-15.637439 15.637439v50.44335a15.637438 15.637438 0 0 0 15.637439 15.637438zM313.253202 815.164532a15.637438 15.637438 0 0 0 15.637438-15.637438v-50.44335a15.637438 15.637438 0 0 0-15.637438-15.637439 15.637438 15.637438 0 0 0-15.637438 15.637439v50.44335a15.637438 15.637438 0 0 0 15.637438 15.637438z" fill="#4A4847" /><path d="M313.253202 780.863054H307.704433a50.44335 50.44335 0 0 0 0 97.860099h5.548769a50.44335 50.44335 0 0 0 0-100.8867zM775.314286 780.863054h-5.548769a50.44335 50.44335 0 0 0 0 97.860099h5.548769a50.44335 50.44335 0 1 0 0-100.8867z" fill="#FF4C40" /><path d="M297.615764 722.853202v-95.842365L204.295567 204.8a12.106404 12.106404 0 0 1 9.079802-14.628571h11.097537a13.619704 13.619704 0 0 1 12.106404 9.584236l100.8867 429.272906v96.851232z" fill="#4A4847" /><path d="M313.253202 845.430542a15.133005 15.133005 0 1 1 15.133005-15.133005 15.637438 15.637438 0 0 1-15.133005 15.133005zM775.314286 845.430542a15.133005 15.133005 0 1 1 15.133005-15.133005 15.133005 15.133005 0 0 1-15.133005 15.133005z" fill="#D4D6D8" /><path d="M353.103448 622.975369L280.465025 264.323153h-10.08867l72.13399 358.652216a34.805911 34.805911 0 0 0 10.593103 0zM361.678818 621.966502l9.584236-1.5133-68.098522-354.112315-10.08867-1.008867 68.602956 356.634482zM325.359606 268.863054l-10.08867-1.008867 65.071921 351.590148 9.584237-1.513301-64.567488-349.06798zM347.55468 271.385222l-9.584237-1.513301 61.036454 346.545813 9.584236-1.008867-61.036453-344.023645zM369.749754 273.402956l-9.584237-1.008867 57.505419 341.501478 9.079803-1.513301-57.000985-338.97931zM392.449261 275.925123l-10.08867-1.008867 53.974384 336.457143 9.584237-1.5133-53.469951-333.934976zM414.644335 277.942857l-10.08867-1.008867 50.44335 331.412808 9.584236-1.008867-49.938916-329.395074zM436.839409 280.465025l-10.08867-1.008867 46.912315 326.368473 9.584237-1.513301-46.407882-323.846305zM459.034483 282.987192l-10.08867-1.5133 43.885714 321.828571 9.079803-1.5133-42.876847-318.801971zM480.725123 285.004926l-9.584236-1.008867 40.35468 316.279803 9.584236-1.008867-40.35468-314.262069zM502.920197 287.527094l-9.584236-1.008867 36.823645 311.235468 9.584236-1.513301-36.823645-308.7133zM525.115271 289.544828l-10.08867-1.008867 34.301478 306.191133 9.584236-1.008867-33.797044-304.173399zM546.805911 292.066995l-9.584236-1.008867 31.274877 301.146798 9.584236-1.5133-31.274877-298.624631zM569.000985 294.084729l-10.08867-1.008867 28.248276 296.606897 9.584237-1.513301-27.743843-294.084729zM590.691626 296.606897l-9.584237-1.008867 25.221675 291.058128 9.584236-1.008867-25.221674-289.040394zM612.382266 298.624631l-9.584236-1.008867 22.699507 286.518226 9.584236-1.5133-22.699507-283.996059zM634.57734 301.146798l-10.08867-1.008867 20.17734 281.473892 9.584236-1.513301-19.672906-278.951724zM656.26798 303.164532l-10.08867-1.008867 17.655173 276.429557 9.584236-1.513301-17.150739-273.907389zM677.958621 305.6867l-9.584237-1.008867 14.628572 271.385221 9.584236-1.5133-14.628571-268.863054zM699.649261 307.704433l-9.584236-1.008866 12.610837 266.340886 9.584237-1.5133-12.610838-263.81872zM721.339901 310.226601l-9.584236-1.008867 10.08867 261.296552 9.584236-1.513301-10.08867-258.774384zM742.526108 312.244335l-9.584236-1.008867 8.575369 256.252217 9.079803-1.513301-8.070936-253.730049zM770.269951 563.95665l-6.053202-249.190148h-9.584237l6.053202 252.216749h8.57537z" fill="#4A4847" /><path d="M353.103448 635.586207a59.018719 59.018719 0 0 1-26.230542-6.053202h-3.531034a59.018719 59.018719 0 0 1-30.770443-39.345813L222.455172 275.925123a22.699507 22.699507 0 0 1 4.539902-19.672906 22.195074 22.195074 0 0 1 18.159606-9.079803L779.349754 302.660099a23.203941 23.203941 0 0 1 21.186207 23.20394v197.233498a50.44335 50.44335 0 0 1-43.885715 50.44335l-392.953694 61.540886z m-35.310345-50.44335a31.274877 31.274877 0 0 0 17.150739 21.690641h3.026601a31.77931 31.77931 0 0 0 15.133005 3.531034h4.539902L756.650246 550.841379a25.221675 25.221675 0 0 0 21.690641-25.726108V329.899507L248.181281 273.402956zM821.722167 752.110345H288.031527a18.664039 18.664039 0 0 1-18.664039-18.66404 18.664039 18.664039 0 0 1 18.664039-18.664039h533.69064a19.168473 19.168473 0 0 1 18.66404 18.664039 19.168473 19.168473 0 0 1-18.66404 18.66404z" fill="#4A4847" /><path d="M222.455172 167.976355a32.788177 32.788177 0 0 0-24.212807 10.593103H136.701478a17.150739 17.150739 0 0 0 0 33.797044h55.992118a32.283744 32.283744 0 1 0 29.761576-44.894581z" fill="#FF4C40" /></svg>